<?xml version="1.0" encoding="UTF-8"?>
<!DOCTYPE svg PUBLIC "-//W3C//DTD SVG 1.1//EN" "http://www.w3.org/Graphics/SVG/1.1/DTD/svg11.dtd">
<svg xmlns="http://www.w3.org/2000/svg" version="1.1" width="192px" height="192px" style="shape-rendering:geometricPrecision; text-rendering:geometricPrecision; image-rendering:optimizeQuality; fill-rule:evenodd; clip-rule:evenodd" xmlns:xlink="http://www.w3.org/1999/xlink">
<g><path style="opacity:0.932" fill="#c4a767" d="M 81.5,-0.5 C 90.8333,-0.5 100.167,-0.5 109.5,-0.5C 153.167,8.83249 180.5,35.1658 191.5,78.5C 191.5,89.8333 191.5,101.167 191.5,112.5C 180.5,155.834 153.167,182.168 109.5,191.5C 100.167,191.5 90.8333,191.5 81.5,191.5C 37.8335,182.168 10.5001,155.834 -0.5,112.5C -0.5,101.167 -0.5,89.8333 -0.5,78.5C 10.5001,35.1658 37.8335,8.83249 81.5,-0.5 Z"/></g>
<g><path style="opacity:1" fill="#483e37" d="M 85.5,7.5 C 130.355,5.91354 161.521,25.5802 179,66.5C 189.204,102.854 181.037,134.354 154.5,161C 121.192,187.438 85.8591,190.438 48.5,170C 18.1086,148.892 4.60858,119.725 8,82.5C 17.3286,40.3366 43.162,15.3366 85.5,7.5 Z"/></g>
<g><path style="opacity:1" fill="#ba9f63" d="M 117.5,16.5 C 121.88,18.5489 124.88,21.8823 126.5,26.5C 126.281,27.938 125.781,29.2713 125,30.5C 121.667,32.2468 118.833,34.5801 116.5,37.5C 117.651,39.8091 118.984,41.9758 120.5,44C 120.37,45.0588 119.87,45.8921 119,46.5C 115.831,44.1728 113.664,41.1728 112.5,37.5C 112.719,36.062 113.219,34.7287 114,33.5C 116.965,31.2756 119.798,28.9422 122.5,26.5C 121.219,23.5526 119.219,21.2193 116.5,19.5C 117.127,18.5832 117.461,17.5832 117.5,16.5 Z"/></g>
<g><path style="opacity:1" fill="#b99e62" d="M 99.5,18.5 C 105.559,20.302 108.392,24.302 108,30.5C 105.362,33.3167 102.362,35.65 99,37.5C 98.3333,38.5 98.3333,39.5 99,40.5C 100.563,41.7252 101.73,43.2252 102.5,45C 102.387,46.2798 101.72,47.1131 100.5,47.5C 95.1513,44.3719 93.6513,40.0386 96,34.5C 99.1984,32.6688 102.032,30.5022 104.5,28C 102.888,25.3838 100.888,23.0505 98.5,21C 99.2524,20.3292 99.5858,19.4959 99.5,18.5 Z"/></g>
<g><path style="opacity:1" fill="#b89d62" d="M 80.5,20.5 C 88.0203,22.5428 90.5203,27.2094 88,34.5C 84.8945,36.1108 82.3945,38.2774 80.5,41C 80.99,43.5028 82.3234,45.5028 84.5,47C 82.2929,50.1803 80.1263,50.0136 78,46.5C 76.5432,43.634 76.2099,40.634 77,37.5C 80.2151,35.3287 83.0484,32.8287 85.5,30C 83.8878,27.3838 81.8878,25.0505 79.5,23C 80.2524,22.3292 80.5858,21.4959 80.5,20.5 Z"/></g>
<g><path style="opacity:1" fill="#c0a465" d="M 61.5,158.5 C 61.5,127.167 61.5,95.8333 61.5,64.5C 60.209,64.2627 59.209,64.596 58.5,65.5C 45.8537,67.4031 35.3537,73.0698 27,82.5C 24.9303,87.6241 25.2636,92.6241 28,97.5C 30.7477,102.252 34.2477,106.419 38.5,110C 36.7071,111.78 35.0404,113.613 33.5,115.5C 19.5754,105.246 15.742,92.2461 22,76.5C 28.1806,69.0138 36.014,63.8471 45.5,61C 70.4076,54.3458 95.7409,50.0124 121.5,48C 127.674,47.0497 133.674,47.383 139.5,49C 137.833,50.6667 136.167,52.3333 134.5,54C 113.255,56.7419 91.2545,59.5752 68.5,62.5C 68.3334,95.1684 68.5,127.835 69,160.5C 70.2525,163.014 70.7525,165.68 70.5,168.5C 89.8362,168.667 109.17,168.5 128.5,168C 130.387,164.293 130.72,160.46 129.5,156.5C 128.051,159.371 126.385,162.205 124.5,165C 121.783,166.033 119.949,165.2 119,162.5C 118.087,158.638 118.42,154.972 120,151.5C 120.925,152.047 121.758,152.713 122.5,153.5C 121.294,155.516 121.294,157.516 122.5,159.5C 124.294,157.318 125.627,154.818 126.5,152C 129.025,151.104 131.192,151.604 133,153.5C 133.667,157.833 133.667,162.167 133,166.5C 131.833,167.667 130.667,168.833 129.5,170C 108.833,170.667 88.1667,170.667 67.5,170C 63.3376,167.378 61.3376,163.545 61.5,158.5 Z"/></g>
<g><path style="opacity:1" fill="#c0a465" d="M 122.5,61.5 C 126.287,60.8144 129.454,61.8144 132,64.5C 133.367,68.6996 133.867,73.0329 133.5,77.5C 128.5,77.5 123.5,77.5 118.5,77.5C 118.335,73.8183 118.501,70.1516 119,66.5C 119.697,64.4156 120.864,62.7489 122.5,61.5 Z"/></g>
<g><path style="opacity:1" fill="#b2975f" d="M 58.5,65.5 C 59.209,64.596 60.209,64.2627 61.5,64.5C 61.5,95.8333 61.5,127.167 61.5,158.5C 61.1645,127.32 60.1645,96.3199 58.5,65.5 Z"/></g>
<g><path style="opacity:1" fill="#4d4239" d="M 123.5,66.5 C 128.339,65.6766 130.673,67.6766 130.5,72.5C 127.5,72.5 124.5,72.5 121.5,72.5C 121.253,70.1417 121.919,68.1417 123.5,66.5 Z"/></g>
<g><path style="opacity:1" fill="#bfa365" d="M 121.5,80.5 C 121.5,83.5 121.5,86.5 121.5,89.5C 122.5,89.5 123.5,89.5 124.5,89.5C 124.5,86.5 124.5,83.5 124.5,80.5C 125.5,80.5 126.5,80.5 127.5,80.5C 127.5,83.5 127.5,86.5 127.5,89.5C 128.5,89.5 129.5,89.5 130.5,89.5C 130.5,86.5 130.5,83.5 130.5,80.5C 131.5,80.5 132.5,80.5 133.5,80.5C 133.5,85.1667 133.5,89.8333 133.5,94.5C 128.5,94.5 123.5,94.5 118.5,94.5C 118.5,89.8333 118.5,85.1667 118.5,80.5C 119.5,80.5 120.5,80.5 121.5,80.5 Z"/></g>
<g><path style="opacity:1" fill="#6e5e44" d="M 121.5,80.5 C 122.317,82.9686 122.817,85.6353 123,88.5C 123.183,85.6353 123.683,82.9686 124.5,80.5C 124.5,83.5 124.5,86.5 124.5,89.5C 123.5,89.5 122.5,89.5 121.5,89.5C 121.5,86.5 121.5,83.5 121.5,80.5 Z"/></g>
<g><path style="opacity:1" fill="#bca164" d="M 120.5,97.5 C 127.349,97.123 130.016,100.456 128.5,107.5C 130.167,107.5 131.833,107.5 133.5,107.5C 133.5,109.167 133.5,110.833 133.5,112.5C 128.5,112.5 123.5,112.5 118.5,112.5C 118.015,107.271 118.682,102.271 120.5,97.5 Z"/></g>
<g><path style="opacity:1" fill="#473d36" d="M 122.5,102.5 C 123.492,102.328 124.158,102.662 124.5,103.5C 124.719,104.675 124.386,105.675 123.5,106.5C 122.571,105.311 122.238,103.978 122.5,102.5 Z"/></g>
<g><path style="opacity:1" fill="#726146" d="M 122.5,102.5 C 122.238,103.978 122.571,105.311 123.5,106.5C 124.386,105.675 124.719,104.675 124.5,103.5C 125.434,104.568 125.768,105.901 125.5,107.5C 124.167,107.5 122.833,107.5 121.5,107.5C 121.216,105.585 121.549,103.919 122.5,102.5 Z"/></g>
<g><path style="opacity:1" fill="#bfa365" d="M 132.5,126.5 C 132.5,128.167 132.5,129.833 132.5,131.5C 128.077,130.124 123.744,128.457 119.5,126.5C 118.167,124.167 118.167,121.833 119.5,119.5C 123.983,117.255 128.65,115.589 133.5,114.5C 133.5,116.167 133.5,117.833 133.5,119.5C 132.178,119.33 131.011,119.663 130,120.5C 129.505,122.473 129.338,124.473 129.5,126.5C 130.5,126.5 131.5,126.5 132.5,126.5 Z"/></g>
<g><path style="opacity:1" fill="#53483b" d="M 125.5,121.5 C 126.776,122.386 126.776,123.386 125.5,124.5C 124.5,124 123.5,123.5 122.5,123C 123.737,122.768 124.737,122.268 125.5,121.5 Z"/></g>
<g><path style="opacity:1" fill="#a28a58" d="M 132.5,126.5 C 133.483,130.298 133.817,134.298 133.5,138.5C 131.5,138.5 129.5,138.5 127.5,138.5C 127.5,140.167 127.5,141.833 127.5,143.5C 126.539,141.735 126.205,139.735 126.5,137.5C 128.5,137.5 130.5,137.5 132.5,137.5C 132.5,136.167 132.5,134.833 132.5,133.5C 128.167,133.5 123.833,133.5 119.5,133.5C 119.5,134.833 119.5,136.167 119.5,137.5C 121.167,137.5 122.833,137.5 124.5,137.5C 124.5,139.833 124.5,142.167 124.5,144.5C 122.833,144.5 121.167,144.5 119.5,144.5C 119.5,145.833 119.5,147.167 119.5,148.5C 118.549,147.081 118.216,145.415 118.5,143.5C 120.167,143.5 121.833,143.5 123.5,143.5C 123.5,141.833 123.5,140.167 123.5,138.5C 121.833,138.5 120.167,138.5 118.5,138.5C 118.5,136.5 118.5,134.5 118.5,132.5C 123.363,132.819 128.03,132.486 132.5,131.5C 132.5,129.833 132.5,128.167 132.5,126.5 Z"/></g>
<g><path style="opacity:1" fill="#c4a767" d="M 127.5,143.5 C 129.5,143.5 131.5,143.5 133.5,143.5C 133.5,145.167 133.5,146.833 133.5,148.5C 128.833,148.5 124.167,148.5 119.5,148.5C 119.5,147.167 119.5,145.833 119.5,144.5C 121.167,144.5 122.833,144.5 124.5,144.5C 124.5,142.167 124.5,139.833 124.5,137.5C 122.833,137.5 121.167,137.5 119.5,137.5C 119.5,136.167 119.5,134.833 119.5,133.5C 123.833,133.5 128.167,133.5 132.5,133.5C 132.5,134.833 132.5,136.167 132.5,137.5C 130.5,137.5 128.5,137.5 126.5,137.5C 126.205,139.735 126.539,141.735 127.5,143.5 Z"/></g>
</svg>
